<?xml version="1.0" encoding="utf-8"?>
<!-- Generator: Adobe Illustrator 28.1.0, SVG Export Plug-In . SVG Version: 6.00 Build 0)  -->
<svg version="1.1" id="Camada_1" xmlns="http://www.w3.org/2000/svg" xmlns:xlink="http://www.w3.org/1999/xlink" x="0px" y="0px"
	 viewBox="0 0 1920 1080" style="enable-background:new 0 0 1920 1080;" xml:space="preserve">
<style type="text/css">
	.st0{fill:#415B76;}
	.st1{fill:url(#SVGID_1_);}
	.st2{fill:url(#SVGID_00000156577647261123353710000016080861089900941708_);}
	.st3{fill:url(#SVGID_00000105402852456003395070000015585946707747286193_);}
	.st4{fill:url(#SVGID_00000167379858238534659360000003498832615876375956_);}
	.st5{fill:url(#SVGID_00000120518101187264518250000001791291188017318824_);}
	.st6{fill:#3D3D3B;}
	.st7{fill:#FFFFFF;}
</style>
<text transform="matrix(1 0 0 1 5913.7944 6292.8291)"><tspan x="0" y="0" class="st7" style="font-family:'Nexa-Black'; font-size:206.1323px; letter-spacing:-30;">T</tspan><tspan x="101" y="0" class="st7" style="font-family:'Nexa-Black'; font-size:206.1323px; letter-spacing:-5;">org</tspan><tspan x="435.75" y="0" class="st7" style="font-family:'Nexa-Black'; font-size:206.1323px; letter-spacing:-8;"> </tspan></text>
<text transform="matrix(1.0135 0 0 1 5971.0894 6359.6104)" class="st7" style="font-family:'Nexa-Light'; font-size:79.1698px; letter-spacing:5.92;">metal</text>
<g>
	<g>
		<path class="st0" d="M290.46,865.07V741.36h-58.34v-40.92h169.43v40.92H343.2v123.71H290.46z"/>
		<path class="st0" d="M585.9,782.75c0,70.56-22.17,84.2-89.85,84.2c-67.68,0-89.85-13.64-89.85-84.2s22.17-84.2,89.85-84.2
			C563.73,698.55,585.9,712.19,585.9,782.75z M496.05,826.03c28,0,35.71-12.7,35.71-43.28c0-30.57-7.7-43.28-35.71-43.28
			c-28,0-35.71,12.7-35.71,43.28C460.35,813.33,468.05,826.03,496.05,826.03z"/>
		<path class="st0" d="M602.23,726.31c0-16.46,9.34-25.87,25.67-25.87h92.18c37.34,0,46.67,20.7,46.67,55.98
			c0,23.52-3.73,58.56-36.41,58.56h-7v0.94l46.67,49.15h-63.48l-31.51-42.8c-5.37-7.29-11.2-12.94-11.2-22.34v-3.53
			c0-14.11,9.57-18.58,23.57-18.58h7.93c14,0,18.67-4.47,18.67-18.58s-4.67-17.87-18.67-17.87h-30.1c-7,0-10.27,3.29-10.27,10.35
			v113.36h-52.74V726.31z"/>
		<path class="st0" d="M868.5,741.36c-25.67,0-35.01,8.47-35.01,41.39c0,32.93,9.34,41.39,35.01,41.39h11.2
			c7,0,10.27-3.29,10.27-10.35v-35.75h52.74v61.15c0,16.46-9.33,25.87-25.67,25.87h-66.28c-53.68,0-71.41-25.87-71.41-82.32
			c0-56.45,17.74-82.32,71.41-82.32h88.21v40.92H868.5z"/>
		<path class="st0" d="M1072.69,849.08c-4.2,10.11-8.17,17.87-16.57,17.87c-8.4,0-12.37-7.76-16.57-17.87l-55.54-134.53
			c-0.93-2.59-2.8-4.94-4.43-4.94c-1.17,0-3.27,0.71-3.27,4.47v150.99h-12.6V714.08c0-9.17,6.07-15.52,15.4-15.52
			c9.33,0,13.54,6.11,17.74,16.23l55.31,134.06c0.93,2.12,1.63,5.17,3.97,5.17c2.33,0,3.03-3.06,3.97-5.17l55.31-134.06
			c4.2-10.11,8.4-16.23,17.74-16.23c9.33,0,15.4,6.35,15.4,15.52v150.99h-12.6V714.08c0-3.76-2.1-4.47-3.27-4.47
			c-1.63,0-3.5,2.35-4.43,4.94L1072.69,849.08z"/>
		<path class="st0" d="M1201.04,865.07c-14.47,0-22.17-5.64-22.17-22.11V722.31c0-16.46,7.7-21.87,22.17-21.87h95.92v11.29h-95.45
			c-8.87,0-10.04,3.53-10.04,10.58v52.92h103.15v11.29h-103.15v56.45c0,7.06,1.17,10.82,10.04,10.82h96.38v11.29H1201.04z"/>
		<path class="st0" d="M1373.26,865.07V711.72h-68.38v-11.29h149.36v11.29h-68.38v153.35H1373.26z"/>
		<path class="st0" d="M1512.12,715.96c3.73-8.94,8.17-17.4,18.2-17.4c9.57,0,14.47,8.7,18.2,17.4l62.54,149.11h-13.54l-19.84-47.98
			h-94.75l-19.84,47.98h-13.54L1512.12,715.96z M1487.85,805.8h84.95l-35.71-86.08c-1.63-3.53-3.27-9.41-6.77-9.41
			c-3.5,0-5.13,5.88-6.77,9.41L1487.85,805.8z"/>
		<path class="st0" d="M1640.47,865.07c-9.8,0-17.74-3.53-17.74-15.05V700.43h12.6v145.35c0,5.41,2.33,8,8.87,8h93.58v11.29H1640.47
			z"/>
	</g>
	<g>
		<linearGradient id="SVGID_1_" gradientUnits="userSpaceOnUse" x1="1219.7267" y1="401.6877" x2="998.1306" y2="401.6877">
			<stop  offset="0" style="stop-color:#00446B"/>
			<stop  offset="1" style="stop-color:#002945"/>
		</linearGradient>
		<path class="st1" d="M1091.5,264.58v317.77h15.21c19.46,0,35.24-16.21,35.24-36.2V221.02l-41.24,26.47
			C1094.98,251.18,1091.5,257.64,1091.5,264.58z"/>
		
			<linearGradient id="SVGID_00000135664712416335350690000008403029015607881634_" gradientUnits="userSpaceOnUse" x1="1219.7267" y1="312.7924" x2="998.1306" y2="312.7924">
			<stop  offset="0" style="stop-color:#00446B"/>
			<stop  offset="1" style="stop-color:#002945"/>
		</linearGradient>
		<path style="fill:url(#SVGID_00000135664712416335350690000008403029015607881634_);" d="M1066.27,221.02l-41.23,26.48
			c-5.73,3.68-9.22,10.14-9.22,17.09v107.59l50.45,32.39V221.02z M1066.27,221.02"/>
		
			<linearGradient id="SVGID_00000083071889308930032400000002556745641543924356_" gradientUnits="userSpaceOnUse" x1="1219.7267" y1="290.6589" x2="998.1306" y2="290.6589">
			<stop  offset="0" style="stop-color:#00446B"/>
			<stop  offset="1" style="stop-color:#002945"/>
		</linearGradient>
		<path style="fill:url(#SVGID_00000083071889308930032400000002556745641543924356_);" d="M990.59,221.02l-41.23,26.47
			c-5.74,3.68-9.22,10.14-9.22,17.09v63.32l50.45,32.39V221.02z M990.59,221.02"/>
		<g>
			
				<linearGradient id="SVGID_00000054233082347130893990000009086925011025874319_" gradientUnits="userSpaceOnUse" x1="959.3959" y1="478.0303" x2="735.9683" y2="478.0303">
				<stop  offset="0" style="stop-color:#00446B"/>
				<stop  offset="1" style="stop-color:#006EAB"/>
			</linearGradient>
			<path style="fill:url(#SVGID_00000054233082347130893990000009086925011025874319_);" d="M940.28,374.2l-140.07,80.2
				c-6.83,4.39-10.98,12.08-10.98,20.35l-0.97,82.22c-0.16,13.7,10.81,24.9,24.41,24.9h126.92L940.28,374.2z"/>
			
				<linearGradient id="SVGID_00000069386271269006519260000015603320750787764890_" gradientUnits="userSpaceOnUse" x1="959.3959" y1="353.5041" x2="735.9683" y2="353.5041">
				<stop  offset="0" style="stop-color:#00446B"/>
				<stop  offset="1" style="stop-color:#006EAB"/>
			</linearGradient>
			<path style="fill:url(#SVGID_00000069386271269006519260000015603320750787764890_);" d="M801.06,418.16l138.95-89.21v-40.3
				L799.58,416.2C798.46,417.21,799.79,418.97,801.06,418.16z"/>
		</g>
	</g>
</g>
<rect x="2349.26" y="-71.06" class="st6" width="2122.36" height="1237.24"/>
<g>
	<g>
		<g>
			<path class="st7" d="M2733.13,865.07V741.36h-58.34v-40.92h169.43v40.92h-58.34v123.71H2733.13z"/>
			<path class="st7" d="M3028.57,782.75c0,70.56-22.17,84.2-89.85,84.2s-89.85-13.64-89.85-84.2s22.17-84.2,89.85-84.2
				S3028.57,712.19,3028.57,782.75z M2938.72,826.03c28,0,35.71-12.7,35.71-43.28c0-30.57-7.7-43.28-35.71-43.28
				s-35.71,12.7-35.71,43.28C2903.02,813.33,2910.72,826.03,2938.72,826.03z"/>
			<path class="st7" d="M3044.9,726.31c0-16.46,9.33-25.87,25.67-25.87h92.18c37.34,0,46.68,20.7,46.68,55.98
				c0,23.52-3.73,58.56-36.41,58.56h-7v0.94l46.67,49.15h-63.48l-31.51-42.8c-5.37-7.29-11.2-12.94-11.2-22.34v-3.53
				c0-14.11,9.57-18.58,23.57-18.58h7.94c14,0,18.67-4.47,18.67-18.58s-4.67-17.87-18.67-17.87h-30.1c-7,0-10.27,3.29-10.27,10.35
				v113.36h-52.74V726.31z"/>
			<path class="st7" d="M3311.17,741.36c-25.67,0-35.01,8.47-35.01,41.39c0,32.93,9.33,41.39,35.01,41.39h11.2
				c7,0,10.27-3.29,10.27-10.35v-35.75h52.74v61.15c0,16.46-9.33,25.87-25.67,25.87h-66.28c-53.68,0-71.41-25.87-71.41-82.32
				c0-56.45,17.74-82.32,71.41-82.32h88.21v40.92H3311.17z"/>
			<path class="st7" d="M3515.36,849.08c-4.2,10.11-8.17,17.87-16.57,17.87c-8.4,0-12.37-7.76-16.57-17.87l-55.54-134.53
				c-0.93-2.59-2.8-4.94-4.43-4.94c-1.17,0-3.27,0.71-3.27,4.47v150.99h-12.6V714.08c0-9.17,6.07-15.52,15.4-15.52
				c9.33,0,13.54,6.11,17.73,16.23l55.31,134.06c0.93,2.12,1.63,5.17,3.97,5.17c2.33,0,3.03-3.06,3.97-5.17l55.31-134.06
				c4.2-10.11,8.4-16.23,17.74-16.23s15.4,6.35,15.4,15.52v150.99h-12.6V714.08c0-3.76-2.1-4.47-3.27-4.47
				c-1.64,0-3.5,2.35-4.44,4.94L3515.36,849.08z"/>
			<path class="st7" d="M3643.71,865.07c-14.47,0-22.17-5.64-22.17-22.11V722.31c0-16.46,7.7-21.87,22.17-21.87h95.92v11.29h-95.45
				c-8.87,0-10.04,3.53-10.04,10.58v52.92h103.15v11.29h-103.15v56.45c0,7.06,1.17,10.82,10.04,10.82h96.38v11.29H3643.71z"/>
			<path class="st7" d="M3815.93,865.07V711.72h-68.38v-11.29h149.36v11.29h-68.38v153.35H3815.93z"/>
			<path class="st7" d="M3954.78,715.96c3.73-8.94,8.17-17.4,18.2-17.4c9.57,0,14.47,8.7,18.2,17.4l62.54,149.11h-13.54
				l-19.84-47.98h-94.75l-19.84,47.98h-13.53L3954.78,715.96z M3930.51,805.8h84.95l-35.71-86.08c-1.63-3.53-3.27-9.41-6.77-9.41
				c-3.5,0-5.14,5.88-6.77,9.41L3930.51,805.8z"/>
			<path class="st7" d="M4083.13,865.07c-9.8,0-17.74-3.53-17.74-15.05V700.43h12.6v145.35c0,5.41,2.33,8,8.87,8h93.58v11.29
				H4083.13z"/>
		</g>
		<g>
			<path class="st7" d="M3534.17,264.58v317.77h15.21c19.46,0,35.24-16.21,35.24-36.2V221.02l-41.24,26.47
				C3537.65,251.18,3534.17,257.64,3534.17,264.58z"/>
			<path class="st7" d="M3508.94,221.02l-41.23,26.48c-5.73,3.68-9.22,10.14-9.22,17.09v107.59l50.45,32.39V221.02z M3508.94,221.02
				"/>
			<path class="st7" d="M3433.26,221.02l-41.23,26.47c-5.74,3.68-9.22,10.14-9.22,17.09v63.32l50.45,32.39V221.02z M3433.26,221.02"
				/>
			<g>
				<path class="st7" d="M3382.95,374.2l-140.07,80.2c-6.83,4.39-10.98,12.08-10.98,20.35l-0.97,82.22
					c-0.16,13.7,10.81,24.9,24.41,24.9h126.92L3382.95,374.2z"/>
				<path class="st7" d="M3243.73,418.16l138.95-89.21v-40.3L3242.25,416.2C3241.13,417.21,3242.46,418.97,3243.73,418.16z"/>
			</g>
		</g>
	</g>
</g>
</svg>
